<?xml version="1.0" encoding="iso-8859-1"?>
<!-- Generator: Adobe Illustrator 19.0.0, SVG Export Plug-In . SVG Version: 6.00 Build 0)  -->
<svg version="1.1" id="Capa_1" xmlns="http://www.w3.org/2000/svg" xmlns:xlink="http://www.w3.org/1999/xlink" x="0px" y="0px"
	 viewBox="0 0 512 512" style="enable-background:new 0 0 512 512;" xml:space="preserve">
<g>
	<g>
		<path d="M501.333,192.019h-23.23c-2.961-3.849-6.203-7.437-10.04-10.437c0.01-0.385,0.021-0.771,0.021-1.156
			c0-22.009-11.865-42.278-30.458-52.33c-6.792-25.269-28.552-42.737-53.625-42.737c-4.035,0-7.932,0.603-11.747,1.467
			c-1.832-10.969-6.549-21.055-14.273-28.778c-18.281-18.27-47.729-20.457-72.198-5.531c-21.094-5.739-45.271,1.333-62.208,18.27
			c-0.469,0.479-0.917,0.948-1.344,1.427c-18.792-1.771-38.385,5.51-52.708,19.832c-3.777,3.777-6.99,8.016-9.785,12.563
			c-15.471-10.165-34.046-13.981-50.85-9.428c-24.458-14.937-53.917-12.739-72.198,5.531c-18.281,18.28-20.458,47.726-5.531,72.193
			c-1.673,6.149-1.953,12.601-1.516,19.113H10.667C4.771,192.019,0,196.789,0,202.685v10.666
			C0,318.954,64.303,409.8,155.798,448.871c-3.801,1.63-6.465,5.395-6.465,9.796c0,5.895,4.771,10.666,10.667,10.666h192
			c5.896,0,10.667-4.771,10.667-10.666c0-4.401-2.664-8.166-6.465-9.796C447.697,409.8,512,318.954,512,213.351v-10.666
			C512,196.789,507.229,192.019,501.333,192.019z M384,106.667c15.792,0,29.51,11.667,33.385,28.375
			c1.146,4.948,4.375,9.021,8.823,11.146c12.479,6.052,20.542,19.49,20.438,35.885c-0.342,3.602,0.764,6.936,2.503,9.927h-54.482
			v-4.958l27.25-18.167c4.906-3.271,6.229-9.885,2.958-14.792c-3.26-4.906-9.885-6.229-14.792-2.958l-15.417,10.276v-22.734
			c0-5.896-4.771-10.667-10.667-10.667c-5.896,0-10.667,4.771-10.667,10.667v22.734l-15.417-10.276
			c-4.938-3.271-11.531-1.948-14.792,2.958c-3.271,4.906-1.948,11.521,2.958,14.792l27.25,18.167V192h-54.313
			c1.73-3.156,2.634-7,2.229-11.594c0-14.729,8.063-28.167,20.5-34.198c4.49-2.146,7.719-6.219,8.875-11.177
			C354.49,118.333,368.208,106.667,384,106.667z M184.604,107.104c10.219-10.198,24.01-15.198,37.01-13.521
			c5.698,0.813,11.844-1.604,17.094-7.792c11.917-11.927,28.729-16.771,42.792-12.333c4.75,1.479,10,0.729,14.323-2.083
			c16.229-10.469,35.594-9.729,47.073,1.729c5.954,5.954,8.911,14.086,8.901,23.135c-10.116,7.568-17.859,18.579-21.422,31.833
			c-18.583,10.031-30.458,30.302-30.458,52.333c0,0.385,0.01,0.771,0.021,1.156c-3.828,2.983-7.076,6.578-10.04,10.438h-23.23
			c5.896,0,10.667-4.771,10.667-10.667c0-5.896-4.771-10.667-10.667-10.667H249.75l21.333-21.333h27.583
			c5.896,0,10.667-4.771,10.667-10.667c0-5.896-4.771-10.667-10.667-10.667h-6.25l24.458-24.458c4.167-4.167,4.167-10.917,0-15.083
			c-4.167-4.167-10.917-4.167-15.083,0l-24.458,24.458v-6.25c0-5.896-4.771-10.667-10.667-10.667
			C260.771,96,256,100.771,256,106.667v27.583l-18.275,18.275c-1.03-2.001-1.82-4.077-3.059-5.993v-29.198
			c0-5.896-4.771-10.667-10.667-10.667s-10.667,4.771-10.667,10.667v7.865c-10.677-6.841-22.889-10.18-35.033-10.214
			C180.126,112.132,182.219,109.49,184.604,107.104z M51.771,115.771c11.5-11.479,30.844-12.198,47.063-1.74
			c4.344,2.813,9.552,3.573,14.344,2.094c14.083-4.406,30.875,0.427,44.135,13.854c0.07,0.083,0.188,0.104,0.259,0.186
			c1.824,2.104,4.079,3.652,6.556,4.707c0.712,0.302,1.447,0.293,2.188,0.5c1.499,0.422,2.964,1.034,4.518,1.034
			c0.72,0,1.451-0.053,2.16-0.152c0.016-0.001,0.033,0.009,0.033,0.009c13.057-1.773,26.839,3.31,37.036,13.508
			c10.688,10.688,15.802,25.552,13.344,38.802c-0.212,1.147-0.083,2.284-0.06,3.427h-52.68v-32c0-5.896-4.771-10.667-10.667-10.667
			s-10.667,4.771-10.667,10.667v32h-6.25L128,176.917v-38.25c0-5.896-4.771-10.667-10.667-10.667
			c-5.896,0-10.667,4.771-10.667,10.667v16.917l-24.458-24.458c-4.167-4.167-10.917-4.167-15.083,0
			c-4.167,4.167-4.167,10.917,0,15.083l42.654,42.654l0.026,0.026l3.112,3.112H51.087c-0.525-5.115-0.427-10.161,1.038-14.833
			c1.49-4.76,0.729-9.979-2.083-14.323C39.563,146.625,40.281,127.271,51.771,115.771z M256,448
			C126.604,448,21.333,342.729,21.333,213.333h469.333C490.667,342.729,385.396,448,256,448z"/>
	</g>
</g>
<g>
</g>
<g>
</g>
<g>
</g>
<g>
</g>
<g>
</g>
<g>
</g>
<g>
</g>
<g>
</g>
<g>
</g>
<g>
</g>
<g>
</g>
<g>
</g>
<g>
</g>
<g>
</g>
<g>
</g>
</svg>
