<svg height="512" viewBox="0 0 64 64" width="512" xmlns="http://www.w3.org/2000/svg"><path d="m59 50h-2.051a13.007 13.007 0 0 0 -12.889-12l.7-1.641a1.006 1.006 0 0 0 .008-.766l-.906-2.245 6.9-16.179a3 3 0 1 0 -5.52-2.345l-6.9 16.18-2.235.895a1 1 0 0 0 -.547.536v.006a13.076 13.076 0 0 0 -5.165-4.258 3.983 3.983 0 0 0 1.605-3.183v-3a1 1 0 0 0 -1-1h-3a3.974 3.974 0 0 0 -3 1.382 3.974 3.974 0 0 0 -3-1.382h-3a1 1 0 0 0 -1 1v3a3.983 3.983 0 0 0 1.607 3.186 13.007 13.007 0 0 0 -7.607 11.814c0 .267.009.516.025.756a12.972 12.972 0 0 0 -4.974 9.244h-2.051a3 3 0 0 0 0 6h8.08a7.006 7.006 0 0 0 6.92 6h24a7.006 7.006 0 0 0 6.92-6h8.08a3 3 0 0 0 0-6zm-4.051 0h-2.008a9 9 0 0 0 -17.882 0h-2.008a10.994 10.994 0 0 1 21.9 0zm-6.049 0a5 5 0 0 0 -9.8 0h-2.02a6.991 6.991 0 0 1 13.84 0zm-2.083 0h-5.633a2.982 2.982 0 0 1 5.632 0zm-9.58-16.4 2.235-.9a1 1 0 0 0 .548-.535l7.062-16.565a1 1 0 0 1 1.31-.526.985.985 0 0 1 .533.541 1 1 0 0 1 0 .765l-7.065 16.567a1 1 0 0 0 -.007.767l.905 2.245-.958 2.241a12.865 12.865 0 0 0 -3.828 1.291 12.888 12.888 0 0 0 -1.163-4.89zm-9.237-10.6h2v2a2 2 0 0 1 -2 2h-2v-2a2 2 0 0 1 2-2zm-8 0h2a2 2 0 0 1 2 2v2h-2a2 2 0 0 1 -2-2zm5 6a11.013 11.013 0 0 1 11 11c0 .286-.013.547-.031.8a13.055 13.055 0 0 0 -3.969 5.208 13.044 13.044 0 0 0 -9.434-7.751 2.995 2.995 0 0 1 5.434 1.743h2a5 5 0 0 0 -9.589-1.979c-.138-.005-.272-.021-.411-.021a12.981 12.981 0 0 0 -1.741.131 7 7 0 0 1 13.741 1.869 7.121 7.121 0 0 1 -.053.88l1.987.24a9.192 9.192 0 0 0 .066-1.12 8.994 8.994 0 0 0 -17.878-1.408 12.909 12.909 0 0 0 -2.1.874 11 11 0 0 1 10.978-10.466zm-5 11a11.01 11.01 0 0 1 10.949 10h-2.008a9 9 0 0 0 -17.882 0h-2.008a11.01 11.01 0 0 1 10.949-10zm4.9 10a5 5 0 0 0 -9.8 0h-2.02a6.991 6.991 0 0 1 13.84 0zm-2.083 0h-5.633a2.982 2.982 0 0 1 5.632 0zm21.183 10h-24a5.008 5.008 0 0 1 -4.9-4h33.8a5.008 5.008 0 0 1 -4.9 4zm15-6h-54a1 1 0 0 1 0-2h54a1 1 0 0 1 0 2z"/><path d="m52.92 22.306-1.84-.785-3.78 8.861a7.786 7.786 0 0 0 -.061 6l1.856-.748a5.871 5.871 0 0 1 .045-4.472z"/><path d="m52.269 18.172h1.8v2h-1.8z" transform="matrix(.392 -.92 .92 .392 14.666 60.549)"/></svg>