<svg id="Icons" height="512" viewBox="0 0 74 74" width="512" xmlns="http://www.w3.org/2000/svg"><path d="m36.436 56.68h-.015v-2z"/><path d="m31.377 71.857h-.14a6.028 6.028 0 0 1 -4.132-1.766 6.1 6.1 0 0 1 -1.769-4.281v-6.41l-3.336.777v4.793a5.059 5.059 0 0 1 -3.383 4.667 4.788 4.788 0 0 1 -6.155-4.568v-2.552l-9.219 2.308a1 1 0 0 1 -1.194-1.278l19.358-59.855a1.006 1.006 0 0 1 1.167-.669c38.472 8.521 49.28 43.556 49.385 43.909a1 1 0 0 1 -.722 1.255l-14.327 3.503v5.61a5.235 5.235 0 0 1 -1.6 3.739 4.846 4.846 0 0 1 -8.188-3.522v-3.427l-9.69 2.375v9.093a6.447 6.447 0 0 1 -1.945 4.583 5.87 5.87 0 0 1 -4.11 1.716zm-5.04-14.717a1 1 0 0 1 1 1v7.668a4.08 4.08 0 0 0 1.183 2.867 3.918 3.918 0 0 0 5.573.036 4.435 4.435 0 0 0 1.343-3.152v-9.879a1 1 0 0 1 .762-.971l11.69-2.865a1 1 0 0 1 1.238.971v4.7a2.9 2.9 0 0 0 2.791 2.89 2.747 2.747 0 0 0 2.007-.806 3.222 3.222 0 0 0 .986-2.3v-6.4a1 1 0 0 1 .763-.971l14.027-3.428c-2.039-5.645-13.686-33.57-46.674-41.326l-18.519 57.273 8.712-2.181a1 1 0 0 1 1.243.97v3.834a2.74 2.74 0 0 0 .814 1.948 2.815 2.815 0 0 0 2.8.7 3.077 3.077 0 0 0 1.924-2.748v-5.586a1 1 0 0 1 .773-.974l5.337-1.244a1.011 1.011 0 0 1 .227-.026z"/><path d="m38.989 50.025a7.75 7.75 0 1 1 7.757-7.757 7.758 7.758 0 0 1 -7.757 7.757zm0-13.5a5.75 5.75 0 1 0 5.757 5.742 5.749 5.749 0 0 0 -5.757-5.741z"/><path d="m19.551 53.973a6.139 6.139 0 1 1 6.149-6.146 6.146 6.146 0 0 1 -6.149 6.146zm0-10.278a4.139 4.139 0 1 0 4.149 4.132 4.136 4.136 0 0 0 -4.149-4.132z"/><path d="m25.672 34.587a5.218 5.218 0 1 1 5.225-5.21 5.217 5.217 0 0 1 -5.225 5.21zm0-8.435a3.218 3.218 0 1 0 3.228 3.225 3.222 3.222 0 0 0 -3.228-3.225z"/><path d="m60.361 50.342-3.361-3.464a6.117 6.117 0 0 1 -1.732-4.278v-2.546a7.79 7.79 0 0 0 -7.087-7.788l-3.925-.37a4.348 4.348 0 0 1 -3.856-3.434l-.83-3.862a5.691 5.691 0 0 0 -5.854-4.527l-4.214.183a4.8 4.8 0 0 1 -4.45-2.533c-2.313-4.4-5.323-4.922-5.354-4.927l.27-1.981c.163.022 4.029.6 6.854 5.978a2.791 2.791 0 0 0 2.594 1.466l4.215-.183a7.733 7.733 0 0 1 7.895 6.107l.826 3.866a2.359 2.359 0 0 0 2.091 1.851l3.925.37a9.782 9.782 0 0 1 8.9 9.779v2.551a4.128 4.128 0 0 0 1.171 2.888l3.361 3.461z"/><path d="m36.436 56.68h-.015v-2z"/></svg>