<?xml version="1.0"?>
<svg xmlns="http://www.w3.org/2000/svg" id="Outline" viewBox="0 0 512 512" width="512" height="512"><path d="M305.586,119.405c-10.138-18.071-18.635-42.512-22.912-55.873A8,8,0,0,0,288,56V24a8,8,0,0,0-8-8H232a8,8,0,0,0-8,8V56a8,8,0,0,0,5.328,7.533c-4.273,13.353-12.763,37.779-22.914,55.872-3.083,5.5-6.115,10.581-9.047,15.5C185.9,154.129,176,170.733,176,192V304c0,12.271,2.915,21.981,5.734,31.373,3.162,10.534,6.432,21.426,6.432,37.706,0,15.911-3.01,23.424-6.195,31.378C179.035,411.785,176,419.361,176,432c0,13.67,2.376,26.543,6.689,36.249C190.327,485.434,201.826,488,208,488c10.913,0,18.862-5.441,24-10.711,5.138,5.27,13.087,10.711,24,10.711s18.862-5.441,24-10.711c5.138,5.27,13.087,10.711,24,10.711,6.174,0,17.673-2.566,25.311-19.751C333.624,458.543,336,445.67,336,432c0-12.639-3.035-20.215-5.971-27.543-3.185-7.954-6.195-15.467-6.195-31.378,0-16.28,3.27-27.172,6.432-37.706C333.085,325.981,336,316.271,336,304V192c0-21.267-9.9-37.871-21.367-57.1C311.7,129.986,308.669,124.9,305.586,119.405ZM240,32h32V48H240ZM211.109,143.1c2.986-5.007,6.073-10.184,9.26-15.865,12.2-21.748,21.809-50.924,25.594-63.233h20.074c3.785,12.309,13.394,41.485,25.594,63.233,3.187,5.681,6.274,10.858,9.26,15.865,9.286,15.572,16.395,27.533,18.472,40.9H192.637C194.714,170.631,201.823,158.67,211.109,143.1ZM192,296V200H320v96ZM304,472c-10.738,0-16.808-11.507-16.845-11.578a7.982,7.982,0,0,0-14.288-.045C272.808,460.493,266.738,472,256,472s-16.808-11.507-16.845-11.578a8,8,0,0,0-14.31,0C224.787,460.538,218.755,472,208,472c-8.822,0-16-17.944-16-40,0-9.553,2.128-14.866,4.823-21.593,3.442-8.593,7.343-18.331,7.343-37.328,0-18.63-3.775-31.208-7.107-42.306-1.944-6.477-3.683-12.332-4.522-18.773H319.463c-.839,6.441-2.578,12.3-4.522,18.773-3.332,11.1-7.107,23.676-7.107,42.306,0,19,3.9,28.735,7.343,37.328C317.872,417.134,320,422.447,320,432,320,454.056,312.822,472,304,472Z"/><path d="M256,216a32,32,0,1,0,32,32A32.036,32.036,0,0,0,256,216Zm0,48a16,16,0,1,1,16-16A16.019,16.019,0,0,1,256,264Z"/><path d="M464,304V192c0-21.267-9.9-37.871-21.367-57.1-2.932-4.917-5.964-10-9.047-15.5-10.138-18.071-18.635-42.512-22.912-55.873A8,8,0,0,0,416,56V24a8,8,0,0,0-8-8H360a8,8,0,0,0-8,8V56a8,8,0,0,0,5.326,7.532c-4.277,13.361-12.774,37.8-22.911,55.872-1.57,2.8-3.256,5.722-5.307,9.2l13.784,8.125c2.109-3.579,3.849-6.6,5.477-9.5,12.2-21.748,21.809-50.924,25.594-63.233h20.074c3.785,12.309,13.394,41.485,25.594,63.233,3.187,5.681,6.274,10.858,9.26,15.865,9.286,15.572,16.395,27.533,18.472,40.9H352v16h96v96H352v16h95.463c-.839,6.441-2.578,12.3-4.522,18.773-3.332,11.1-7.107,23.676-7.107,42.306,0,19,3.9,28.735,7.343,37.328C445.872,417.134,448,422.447,448,432c0,22.056-7.178,40-16,40-10.738,0-16.808-11.507-16.845-11.578a7.982,7.982,0,0,0-14.288-.045C400.808,460.493,394.738,472,384,472s-16.808-11.507-16.845-11.578a8,8,0,0,0-14.31,0c-.039.078-4.244,7.948-11.6,10.647l5.512,15.022a36.034,36.034,0,0,0,13.266-8.78C365.162,482.574,373.1,488,384,488c10.913,0,18.862-5.441,24-10.711,5.138,5.27,13.087,10.711,24,10.711,6.174,0,17.673-2.566,25.311-19.751C461.624,458.543,464,445.67,464,432c0-12.639-3.035-20.215-5.971-27.543-3.185-7.954-6.195-15.467-6.195-31.378,0-16.28,3.27-27.172,6.432-37.706C461.085,325.981,464,316.271,464,304ZM368,32h32V48H368Z"/><path d="M416,248a32,32,0,1,0-32,32A32.036,32.036,0,0,0,416,248Zm-48,0a16,16,0,1,1,16,16A16.019,16.019,0,0,1,368,248Z"/><path d="M159.155,460.423a8,8,0,0,0-14.31,0C144.787,460.538,138.755,472,128,472c-10.738,0-16.808-11.507-16.845-11.578a7.982,7.982,0,0,0-14.288-.045C96.808,460.493,90.738,472,80,472c-8.822,0-16-17.944-16-40,0-9.553,2.128-14.866,4.823-21.593,3.442-8.593,7.343-18.331,7.343-37.328,0-18.63-3.775-31.208-7.107-42.306C67.115,324.3,65.376,318.441,64.537,312H160V296H64V200h96V184H64.637c2.077-13.369,9.186-25.33,18.472-40.9,2.986-5.007,6.073-10.184,9.26-15.865,12.2-21.748,21.809-50.924,25.594-63.233h20.074c3.785,12.309,13.394,41.485,25.6,63.234,1.627,2.9,3.367,5.916,5.476,9.5l13.784-8.125c-2.051-3.478-3.737-6.4-5.306-9.2-10.138-18.071-18.635-42.512-22.912-55.873A8,8,0,0,0,160,56V24a8,8,0,0,0-8-8H104a8,8,0,0,0-8,8V56a8,8,0,0,0,5.326,7.532c-4.277,13.361-12.774,37.8-22.912,55.873-3.083,5.5-6.115,10.581-9.047,15.5C57.9,154.129,48,170.733,48,192V304c0,12.271,2.915,21.981,5.734,31.373,3.162,10.534,6.432,21.426,6.432,37.706,0,15.911-3.01,23.424-6.195,31.378C51.035,411.785,48,419.361,48,432c0,13.67,2.376,26.543,6.689,36.249C62.327,485.434,73.826,488,80,488c10.913,0,18.862-5.441,24-10.711,5.138,5.27,13.087,10.711,24,10.711,10.9,0,18.838-5.426,23.978-10.688a36.034,36.034,0,0,0,13.266,8.78l5.512-15.022C163.316,468.341,159.174,460.456,159.155,460.423ZM112,32h32V48H112Z"/><path d="M96,248a32,32,0,1,0,32-32A32.036,32.036,0,0,0,96,248Zm48,0a16,16,0,1,1-16-16A16.019,16.019,0,0,1,144,248Z"/></svg>
