<svg xmlns="http://www.w3.org/2000/svg" width="472.445" height="512.002" viewBox="0 0 472.445 512.002"><g transform="translate(-19.778)"><path d="M309.411,260.108a57.566,57.566,0,1,0-57.566,57.566A57.631,57.631,0,0,0,309.411,260.108Zm-100.114,0a42.549,42.549,0,1,1,42.549,42.549A42.6,42.6,0,0,1,209.3,260.108Z"/><path d="M359.738,247.008c14.989-6.212,24.622-19.694,24.622-34.157v-5.6c0-14.463-9.664-27.871-24.622-34.158a7.51,7.51,0,0,0-5.819,0c-14.957,6.287-24.622,19.695-24.622,34.158v5.6c0,14.463,9.679,27.835,24.622,34.157A6.754,6.754,0,0,0,359.738,247.008ZM344.314,212.85v-5.6c0-7.624,4.72-14.651,12.514-18.914,7.794,4.263,12.514,11.29,12.514,18.914v5.6c0,7.624-4.72,14.651-12.514,18.913C349.035,227.5,344.314,220.474,344.314,212.85Z"/><path d="M122.8,224.016a42.078,42.078,0,0,0,21.839,6.339,34.432,34.432,0,0,0,20.267-6.347l4.54-3.274c11.73-8.459,16.952-24.14,13.3-39.949a7.511,7.511,0,0,0-3.4-4.72c-13.85-8.455-30.378-8.452-42.107.008l-4.54,3.274c-11.731,8.459-16.954,24.141-13.3,39.95a7.509,7.509,0,0,0,3.4,4.719Zm18.683-32.489,4.54-3.274c6.185-4.46,14.645-4.74,22.661-.912,1.1,8.815-1.837,16.753-8.021,21.213l-4.54,3.274c-6.185,4.46-14.645,4.741-22.661.912C132.362,203.925,135.3,195.986,141.484,191.527Z"/><path d="M469.544,47.484c-14.982-6.066-29.828-13.1-45.157-18.539A7.509,7.509,0,1,0,419.366,43.1c14.87,5.277,29.608,11.327,43.8,17.984q18.262,10.773,10.717,30.529L454.9,129.583c-72.844-38.78-157.2-55.33-239.314-47.647a7.508,7.508,0,1,0,1.4,14.951c79.3-7.42,160.885,8.609,231.2,46.129l-11.2,22.4c-112.008-59.99-250.988-59.99-363,0l-11.2-22.4a404.571,404.571,0,0,1,122.052-41.884,7.509,7.509,0,0,0-2.556-14.8A419.562,419.562,0,0,0,56.07,129.579L37.085,91.61Q29.54,71.855,47.8,61.081A485.816,485.816,0,0,1,255.486,15.017a490.838,490.838,0,0,1,131.648,17.9,7.508,7.508,0,1,0,4.028-14.466A505.809,505.809,0,0,0,255.487,0,500.732,500.732,0,0,0,41.43,47.483C22.523,56.344,14.3,79.61,23.654,98.326L99.891,250.8q4.344,5.967,10.074,3.357a7.509,7.509,0,0,0,3.357-10.074L80.708,178.857c107.8-57.9,241.757-57.9,349.561,0l-63.39,126.776c-36.689-13.677-77.7,14.636-77.7,53.917a57.816,57.816,0,0,0,26.51,48.465L277.8,483.778c-9.054,18.1-35.58,18.1-44.635,0L214,445.448a57.617,57.617,0,0,0,30.931-51.037c0-41.624-45.162-69.809-82.417-51.934L129.681,276.8a7.508,7.508,0,1,0-13.431,6.716L219.738,490.5c14.277,28.541,57.089,28.805,71.5,0l101.534-203.07,94.549-189.1c11.444-20.572,1.766-42.931-17.776-50.842ZM187.369,351.862c43.4,0,57.976,59.989,19.92,80.156l-38.052-76.1A42.349,42.349,0,0,1,187.369,351.862Zm116.824,7.689c0-28.143,29.362-49.154,55.92-40.386l-37.65,75.3a42.718,42.718,0,0,1-18.27-34.911Z" fill="#0b0a08"/></g></svg>